<svg width="42" height="42" viewBox="0 0 42 42" fill="none" xmlns="http://www.w3.org/2000/svg">
<path d="M39.0225 28.605C36.255 28.605 33.5775 28.155 31.08 27.345C30.2925 27.075 29.415 27.2775 28.8075 27.885L25.275 32.3175C18.9075 29.28 12.945 23.5425 9.7725 16.95L14.16 13.215C14.7675 12.585 14.9475 11.7075 14.7 10.92C13.8675 8.4225 13.44 5.745 13.44 2.9775C13.44 1.7625 12.4275 0.75 11.2125 0.75H3.4275C2.2125 0.75 0.75 1.29 0.75 2.9775C0.75 23.88 18.1425 41.25 39.0225 41.25C40.62 41.25 41.25 39.8325 41.25 38.595V30.8325C41.25 29.6175 40.2375 28.605 39.0225 28.605Z" fill="#111F50"/>
</svg>
