<svg width="32" height="46" viewBox="0 0 32 46" fill="none" xmlns="http://www.w3.org/2000/svg">
<path d="M16 0.5C7.2925 0.5 0.25 7.5425 0.25 16.25C0.25 20.165 1.375 23.8325 3.4225 27.14C5.56 30.605 8.3725 33.575 10.5325 37.04C11.59 38.7275 12.355 40.3025 13.165 42.125C13.75 43.3625 14.2225 45.5 16 45.5C17.7775 45.5 18.25 43.3625 18.8125 42.125C19.645 40.3025 20.3875 38.7275 21.445 37.04C23.605 33.5975 26.4175 30.6275 28.555 27.14C30.625 23.8325 31.75 20.165 31.75 16.25C31.75 7.5425 24.7075 0.5 16 0.5ZM16 22.4375C12.895 22.4375 10.375 19.9175 10.375 16.8125C10.375 13.7075 12.895 11.1875 16 11.1875C19.105 11.1875 21.625 13.7075 21.625 16.8125C21.625 19.9175 19.105 22.4375 16 22.4375Z" fill="#111F50"/>
</svg>
