<svg width="46" height="46" viewBox="0 0 46 46" fill="none" xmlns="http://www.w3.org/2000/svg">
<path d="M43.025 31.45C39.95 31.45 36.975 30.95 34.2 30.05C33.325 29.75 32.35 29.975 31.675 30.65L27.75 35.575C20.675 32.2 14.05 25.825 10.525 18.5L15.4 14.35C16.075 13.65 16.275 12.675 16 11.8C15.075 9.025 14.6 6.05 14.6 2.975C14.6 1.625 13.475 0.5 12.125 0.5H3.475C2.125 0.5 0.5 1.1 0.5 2.975C0.5 26.2 19.825 45.5 43.025 45.5C44.8 45.5 45.5 43.925 45.5 42.55V33.925C45.5 32.575 44.375 31.45 43.025 31.45Z" fill="white"/>
</svg>
