<svg width="46" height="46" viewBox="0 0 46 46" fill="none" xmlns="http://www.w3.org/2000/svg">
<path d="M22.9775 0.5C10.5575 0.5 0.5 10.58 0.5 23C0.5 35.42 10.5575 45.5 22.9775 45.5C35.42 45.5 45.5 35.42 45.5 23C45.5 10.58 35.42 0.5 22.9775 0.5ZM38.57 14H31.9325C31.2125 11.1875 30.1775 8.4875 28.8275 5.99C32.9675 7.4075 36.41 10.2875 38.57 14ZM23 5.09C24.8675 7.79 26.33 10.7825 27.2975 14H18.7025C19.67 10.7825 21.1325 7.79 23 5.09ZM5.585 27.5C5.225 26.06 5 24.5525 5 23C5 21.4475 5.225 19.94 5.585 18.5H13.19C13.01 19.985 12.875 21.47 12.875 23C12.875 24.53 13.01 26.015 13.19 27.5H5.585ZM7.43 32H14.0675C14.7875 34.8125 15.8225 37.5125 17.1725 40.01C13.0325 38.5925 9.59 35.735 7.43 32ZM14.0675 14H7.43C9.59 10.265 13.0325 7.4075 17.1725 5.99C15.8225 8.4875 14.7875 11.1875 14.0675 14ZM23 40.91C21.1325 38.21 19.67 35.2175 18.7025 32H27.2975C26.33 35.2175 24.8675 38.21 23 40.91ZM28.265 27.5H17.735C17.5325 26.015 17.375 24.53 17.375 23C17.375 21.47 17.5325 19.9625 17.735 18.5H28.265C28.4675 19.9625 28.625 21.47 28.625 23C28.625 24.53 28.4675 26.015 28.265 27.5ZM28.8275 40.01C30.1775 37.5125 31.2125 34.8125 31.9325 32H38.57C36.41 35.7125 32.9675 38.5925 28.8275 40.01ZM32.81 27.5C32.99 26.015 33.125 24.53 33.125 23C33.125 21.47 32.99 19.985 32.81 18.5H40.415C40.775 19.94 41 21.4475 41 23C41 24.5525 40.775 26.06 40.415 27.5H32.81Z" fill="#111F50"/>
</svg>
